<?xml version="1.0" standalone="no"?>
<!DOCTYPE svg PUBLIC "-//W3C//DTD SVG 20010904//EN"
 "http://www.w3.org/TR/2001/REC-SVG-20010904/DTD/svg10.dtd">
<svg version="1.0" xmlns="http://www.w3.org/2000/svg"
 width="1200.000000pt" height="600.000000pt" viewBox="0 0 1200.000000 600.000000"
 preserveAspectRatio="xMidYMid meet">

<g transform="translate(0.000000,600.000000) scale(0.100000,-0.100000)"
fill="#000000" stroke="none">
<path d="M9354 3390 c-63 -13 -137 -54 -174 -96 -77 -88 -112 -231 -92 -374
26 -186 127 -291 302 -315 52 -8 160 9 205 32 53 27 114 94 135 151 34 90 33
92 -62 92 l-83 0 -15 -47 c-20 -63 -63 -93 -132 -93 -64 0 -110 22 -141 68
-40 60 -50 105 -45 215 4 117 27 174 87 214 41 28 126 31 171 8 30 -15 70 -79
70 -110 0 -14 7 -16 40 -11 22 3 58 9 80 12 22 3 40 10 40 15 0 4 -10 34 -21
65 -27 72 -76 126 -138 153 -56 24 -166 34 -227 21z"/>
<path d="M10046 3390 c-72 -13 -137 -50 -171 -99 -27 -38 -30 -51 -30 -114 0
-141 54 -191 249 -232 162 -35 185 -49 186 -116 0 -85 -130 -125 -233 -72 -25
12 -45 44 -61 96 -4 14 -18 17 -81 17 l-75 0 0 -29 c0 -48 29 -114 68 -154 94
-96 330 -114 450 -34 139 94 128 302 -19 378 -22 10 -92 31 -156 45 -129 27
-160 42 -169 78 -18 74 25 111 131 111 68 0 76 -2 104 -29 16 -16 33 -42 36
-58 6 -25 11 -28 33 -24 15 2 48 8 75 11 53 7 54 11 32 76 -20 56 -65 102
-124 128 -55 23 -175 34 -245 21z"/>
<path d="M10730 3390 c-70 -15 -132 -52 -165 -99 -27 -38 -30 -51 -30 -114 0
-141 54 -191 249 -232 162 -35 185 -49 186 -116 0 -85 -130 -125 -233 -72 -25
12 -45 44 -61 96 -4 14 -18 17 -82 17 l-77 0 6 -45 c18 -128 108 -203 267
-220 75 -8 176 8 231 36 110 56 149 202 84 315 -33 57 -100 90 -243 120 -64
14 -127 32 -139 40 -44 28 -44 95 -1 127 38 28 133 35 180 13 35 -17 68 -61
68 -91 0 -11 6 -15 18 -11 9 2 43 7 75 11 64 7 65 9 41 78 -19 57 -84 118
-145 136 -56 17 -173 22 -229 11z"/>
<path d="M4770 3310 l0 -70 110 0 110 0 0 -310 0 -310 80 0 80 0 0 310 0 310
115 0 115 0 0 70 0 70 -305 0 -305 0 0 -70z"/>
<path d="M5940 3315 l0 -65 75 0 75 0 0 65 0 65 -75 0 -75 0 0 -65z"/>
<path d="M6220 3000 l0 -380 75 0 75 0 0 380 0 380 -75 0 -75 0 0 -380z"/>
<path d="M7310 3315 l0 -65 75 0 75 0 0 65 0 65 -75 0 -75 0 0 -65z"/>
<path d="M8590 3248 l0 -131 -23 21 c-55 52 -158 67 -233 33 -57 -26 -108 -90
-128 -160 -44 -156 4 -330 105 -381 79 -41 192 -26 257 33 l22 20 0 -31 0 -32
75 0 75 0 0 380 0 380 -75 0 -75 0 0 -132z m-61 -193 c39 -19 61 -79 61 -163
0 -82 -21 -130 -70 -155 -45 -23 -94 -16 -131 19 -68 65 -60 247 13 298 28 20
90 21 127 1z"/>
<path d="M5495 3181 c-74 -19 -125 -65 -140 -123 -7 -29 11 -38 78 -38 30 0
45 7 67 30 24 26 35 30 78 30 66 0 94 -22 96 -76 l1 -39 -85 -7 c-143 -10
-212 -38 -250 -100 -26 -42 -26 -121 -2 -168 50 -95 225 -108 315 -23 l27 27
0 -37 0 -37 71 0 70 0 -3 218 c-3 207 -4 219 -27 258 -35 62 -87 87 -186 90
-44 2 -93 0 -110 -5z m182 -353 c-8 -62 -51 -100 -119 -105 -65 -6 -91 10 -91
56 0 58 54 86 177 90 l39 1 -6 -42z"/>
<path d="M7814 3171 c-22 -10 -50 -31 -62 -46 l-22 -28 0 37 0 36 -75 0 -75 0
2 -272 3 -273 73 -3 72 -3 0 173 c0 198 9 229 71 263 30 15 44 17 75 10 59
-15 64 -32 64 -252 l0 -193 76 0 76 0 -4 223 c-3 201 -5 226 -24 262 -39 77
-157 108 -250 66z"/>
<path d="M5940 2895 l0 -275 75 0 75 0 0 275 0 275 -75 0 -75 0 0 -275z"/>
<path d="M6443 3148 c3 -13 39 -137 79 -275 l73 -253 71 0 71 0 48 181 c27 99
52 174 55 167 4 -7 27 -88 51 -180 l44 -168 72 0 71 0 11 33 c5 17 40 135 76
260 36 125 69 235 72 243 5 13 -7 14 -73 12 l-79 -3 -35 -167 c-19 -91 -38
-169 -41 -173 -4 -3 -10 7 -13 22 -4 15 -25 94 -48 176 l-40 147 -64 0 -63 0
-25 -82 c-13 -46 -37 -125 -52 -176 -16 -54 -30 -88 -34 -80 -4 7 -22 86 -41
176 l-33 162 -79 0 c-77 0 -79 -1 -74 -22z"/>
<path d="M7310 2895 l0 -275 75 0 75 0 0 275 0 275 -75 0 -75 0 0 -275z"/>
</g>
</svg>
